<svg xmlns="http://www.w3.org/2000/svg">

  <!-- Ogun -->
    <symbol id="ogun" viewBox="0 0 200 200">
      <title>Ogun Symbol</title>
      <g transform="translate(0.000000,193.000000) scale(0.100000,-0.100000)"
       stroke="none">
      <path d="M108 1903 c-31 -33 -68 -107 -93 -182 -43 -131 21 -335 205 -657 78
      -138 301 -472 418 -629 l90 -120 -24 -26 c-23 -24 -23 -27 -9 -39 13 -11 25
      -11 58 -2 38 10 46 8 85 -14 40 -24 42 -27 36 -60 -6 -32 -5 -34 23 -34 27 0
      30 -4 42 -52 7 -29 15 -61 18 -71 4 -16 13 -13 81 24 42 23 81 45 86 49 16 16
      -82 201 -138 260 -31 32 -56 69 -61 88 -3 18 -12 32 -18 32 -7 0 -57 89 -113
      198 -608 1191 -641 1256 -651 1259 -5 2 -21 -9 -35 -24z"/>
      </g>
    </symbol>
    <symbol id="mawu" viewBox="0 0 200 200">
      <title>Mawu Symbol</title>
      <g transform="translate(0.000000,158.000000) scale(0.100000,-0.100000)"
       stroke="none">
      <path d="M730 1525 c-47 -68 -73 -133 -66 -165 5 -26 2 -29 -39 -39 -56 -14
      -52 -15 -59 14 -6 23 -101 111 -146 135 -17 9 -20 5 -30 -27 -22 -76 -24 -167
      -5 -206 l17 -37 -32 -40 c-30 -38 -34 -40 -50 -25 -22 20 -67 32 -152 40 -45
      4 -68 3 -68 -4 0 -21 50 -143 70 -170 11 -16 34 -34 51 -41 29 -12 31 -16 25
      -49 -3 -20 -6 -41 -6 -47 0 -7 -17 -12 -39 -12 -39 -1 -191 -58 -191 -72 0
      -11 68 -69 119 -102 31 -19 58 -28 86 -28 39 0 43 -2 54 -38 7 -20 14 -42 17
      -48 3 -7 -9 -17 -27 -23 -36 -12 -163 -141 -151 -153 10 -10 158 -48 187 -48
      12 0 44 11 70 25 l48 26 26 -23 c14 -13 28 -24 30 -26 3 -1 -5 -12 -17 -25
      -11 -12 -25 -42 -31 -67 -11 -48 -15 -170 -5 -170 16 0 162 74 181 92 12 11
      28 37 34 56 11 33 13 34 48 28 20 -3 46 -6 59 -6 19 0 22 -5 22 -39 0 -41 52
      -131 103 -180 l26 -23 24 48 c41 82 57 148 46 189 -6 20 -9 38 -7 39 11 6 79
      36 83 36 3 0 11 -13 19 -29 14 -26 14 -30 -4 -46 -30 -27 -24 -38 10 -20 26
      14 33 14 52 1 24 -15 150 -56 173 -56 13 0 4 87 -15 144 -9 25 -6 31 18 49 15
      11 63 57 108 101 99 99 144 182 151 280 13 153 -92 325 -294 488 -60 47 -63
      51 -61 91 1 23 1 66 0 94 -2 50 -3 52 -25 44 -12 -5 -47 -23 -77 -41 -52 -31
      -55 -31 -81 -16 -38 23 -46 20 -20 -8 22 -23 22 -24 4 -60 -9 -20 -22 -35 -29
      -32 -7 3 -30 10 -52 17 -37 11 -40 14 -45 55 -4 42 -82 194 -98 194 -5 0 -22
      -20 -39 -45z"/>
      </g>
    </symbol>
    <symbol id="osun" viewBox="0 0 200 250">
    <title>Osun Symbol</title>
    <g transform="translate(0.000000,236.000000) scale(0.100000,-0.100000)"
     stroke="none">
    <path d="M454 2335 c-13 -13 -24 -36 -24 -50 l0 -26 -29 22 c-53 39 -111 22
    -111 -32 0 -24 -4 -29 -23 -29 -39 0 -60 -23 -55 -58 4 -30 3 -31 -30 -30 -42
    2 -66 -24 -58 -63 4 -23 1 -27 -24 -32 -41 -9 -55 -39 -35 -77 9 -16 21 -30
    28 -30 6 -1 -4 -9 -23 -18 -26 -13 -36 -24 -38 -46 -2 -16 1 -33 7 -39 7 -7 3
    -17 -14 -33 -30 -28 -32 -57 -5 -82 l20 -19 -20 -18 c-25 -23 -26 -57 0 -80
    17 -15 18 -20 6 -44 -18 -34 -5 -68 29 -77 l26 -6 -20 -20 c-28 -26 -26 -62 4
    -86 20 -16 24 -25 17 -44 -5 -12 -7 -30 -5 -39 5 -20 47 -41 67 -33 11 4 13
    -2 9 -33 -5 -41 5 -58 42 -65 14 -2 21 -13 25 -38 7 -47 40 -64 88 -44 44 18
    42 18 42 -9 0 -33 28 -67 55 -67 13 0 27 5 30 10 3 6 12 10 20 10 19 0 19
    -161 0 -384 -8 -99 -12 -195 -9 -213 4 -21 0 -48 -10 -74 -20 -49 -23 -153 -6
    -206 17 -53 57 -103 95 -119 95 -39 188 69 187 216 0 36 -6 79 -13 95 -7 17
    -13 68 -14 115 -1 47 -5 189 -10 316 l-8 231 23 31 c16 22 27 29 34 22 5 -5
    22 -10 37 -10 30 0 59 31 59 62 0 14 5 17 24 12 34 -8 64 11 68 43 2 23 8 29
    35 31 18 2 39 12 46 23 15 21 11 65 -5 76 -6 3 4 12 21 19 27 12 31 18 31 54
    0 27 4 40 13 40 36 0 60 63 35 89 -11 10 -10 14 5 22 19 11 24 68 7 85 -7 7
    -4 16 10 29 27 24 25 59 -4 82 -23 19 -23 19 -5 42 24 30 24 34 -5 68 -21 25
    -22 31 -10 48 8 10 14 25 14 32 0 22 -39 53 -67 53 l-26 0 22 24 c33 35 26 77
    -16 95 -21 9 -33 22 -33 33 0 38 -19 58 -55 58 -33 0 -34 0 -23 30 8 24 7 35
    -7 56 -15 23 -22 26 -56 21 -21 -3 -39 -1 -39 4 0 16 -39 49 -59 49 -10 0 -30
    -12 -45 -26 l-26 -27 0 27 c0 35 -42 78 -67 69 -10 -3 -25 -12 -35 -20 -9 -9
    -18 -10 -22 -5 -3 6 -20 15 -37 21 -27 9 -33 8 -55 -14z m58 -2130 c37 -32 69
    -32 106 0 17 14 33 25 37 25 4 0 5 -28 3 -61 -4 -54 -9 -66 -36 -90 -18 -16
    -43 -29 -57 -29 -53 0 -107 84 -97 150 2 17 6 30 9 30 3 0 18 -11 35 -25z"/>
    </g>
    </symbol>
    <symbol id="oya" viewBox="0 0 250 250">
    <title>Oya Symbol</title>
    <g transform="translate(0.000000,137.000000) scale(0.100000,-0.100000)"
     stroke="none">
    <path d="M2120 1358 c-52 -8 -190 -64 -190 -77 0 -3 21 -19 46 -34 26 -16 43
    -33 40 -40 -28 -68 -29 -85 -6 -132 40 -83 133 -97 242 -38 104 57 126 140 64
    237 -50 79 -99 100 -196 84z"/>
    <path d="M1576 1329 c-79 -13 -147 -55 -267 -166 -139 -129 -184 -165 -229
    -188 -58 -30 -197 -56 -270 -50 -100 7 96 -21 358 -50 310 -36 386 -36 489 -1
    241 81 334 233 221 362 -62 70 -192 111 -302 93z m149 -133 c40 -17 75 -68 75
    -109 0 -96 -201 -158 -505 -156 -121 1 -135 3 -100 13 29 8 67 36 135 101 112
    107 148 133 203 151 57 17 150 17 192 0z"/>
    <path d="M355 1011 c-33 -10 -79 -27 -103 -40 -49 -25 -47 -34 13 -67 25 -13
    33 -23 29 -34 -25 -58 -27 -87 -8 -125 29 -59 62 -78 130 -76 70 2 144 39 187
    93 38 48 40 98 4 160 -62 105 -123 127 -252 89z"/>
    <path d="M2037 916 c-58 -24 -79 -39 -267 -192 -58 -47 -121 -93 -140 -103
    -57 -29 -139 -45 -238 -45 -51 0 -90 -2 -85 -3 82 -23 671 -113 739 -113 153
    0 349 94 400 191 36 71 1 170 -80 226 -97 66 -225 82 -329 39z m231 -120 c38
    -20 62 -62 62 -109 0 -90 -150 -137 -425 -136 -60 1 -135 4 -165 8 l-55 6 45
    12 c33 9 69 33 130 88 115 101 151 126 213 141 64 16 153 12 195 -10z"/>
    <path d="M869 835 c-63 -16 -85 -27 -209 -107 -136 -87 -225 -138 -260 -148
    -37 -11 -210 -15 -255 -6 -52 10 141 -52 357 -115 246 -71 334 -89 408 -82
    152 13 297 80 335 153 35 68 5 174 -65 230 -93 73 -208 101 -311 75z m176
    -134 c53 -24 76 -51 82 -99 7 -51 -8 -77 -58 -102 -76 -39 -292 -36 -509 7
    -82 16 -84 17 -47 25 50 10 89 31 167 88 113 83 153 98 255 99 48 0 83 -5 110
    -18z"/>
    <path d="M1480 456 c-52 -15 -78 -28 -218 -108 -194 -112 -216 -120 -339 -119
    -59 1 -123 6 -141 12 -18 6 -35 9 -38 7 -4 -5 288 -112 521 -191 141 -48 156
    -51 250 -51 155 0 291 49 347 125 49 66 28 168 -48 239 -90 83 -225 118 -334
    86z m191 -133 c106 -42 117 -167 19 -207 -80 -32 -301 -16 -509 36 l-86 22 47
    7 c47 7 96 31 213 103 33 20 80 43 105 51 53 17 152 12 211 -12z"/>
    <path d="M358 415 c-89 -30 -158 -122 -158 -210 0 -39 5 -50 40 -84 108 -105
    206 -94 339 38 l66 65 -30 7 c-16 5 -42 11 -57 14 -25 5 -28 10 -28 46 0 96
    -82 155 -172 124z"/>
    <path d="M1993 392 c-29 -2 -53 -6 -53 -10 0 -4 13 -23 30 -42 16 -19 29 -39
    30 -44 0 -4 -14 -24 -31 -44 -28 -32 -31 -40 -27 -89 8 -94 85 -140 206 -123
    118 16 167 66 157 158 -7 70 -32 128 -64 151 -50 35 -137 50 -248 43z"/>
    </g>
    </symbol>
    <symbol id="sango" viewBox="0 0 200 250">
    <title>Sango Symbol</title>
    <g transform="translate(0.000000,229.000000) scale(0.100000,-0.100000)"
     stroke="none">
    <path d="M10 1760 l0 -530 21 0 c12 0 27 7 33 15 10 13 698 425 711 425 3 0 5
    -360 5 -800 0 -873 -1 -852 56 -866 33 -8 61 17 74 67 7 25 10 312 10 815 -1
    427 0 777 2 779 3 3 263 -155 602 -366 87 -54 165 -99 172 -99 12 0 14 92 14
    540 0 593 3 564 -58 522 -62 -44 -655 -348 -704 -363 -27 -7 -28 -6 -28 32 0
    78 -40 136 -85 125 -33 -8 -55 -54 -55 -115 0 -46 -1 -49 -22 -43 -13 3 -59
    28 -103 55 -138 85 -605 337 -625 337 -20 0 -20 -10 -20 -530z"/>
    </g>
    </symbol>

</svg>