<?xml version="1.0" standalone="no"?>
<!DOCTYPE svg PUBLIC "-//W3C//DTD SVG 20010904//EN"
 "http://www.w3.org/TR/2001/REC-SVG-20010904/DTD/svg10.dtd">
<svg version="1.0" xmlns="http://www.w3.org/2000/svg"
 width="155.000000pt" height="158.000000pt" viewBox="0 0 155.000000 158.000000"
 preserveAspectRatio="xMidYMid meet">
<metadata>
Created by potrace 1.15, written by Peter Selinger 2001-2017
</metadata>
<g transform="translate(0.000000,158.000000) scale(0.100000,-0.100000)"
fill="#000000" stroke="none">
<path d="M730 1525 c-47 -68 -73 -133 -66 -165 5 -26 2 -29 -39 -39 -56 -14
-52 -15 -59 14 -6 23 -101 111 -146 135 -17 9 -20 5 -30 -27 -22 -76 -24 -167
-5 -206 l17 -37 -32 -40 c-30 -38 -34 -40 -50 -25 -22 20 -67 32 -152 40 -45
4 -68 3 -68 -4 0 -21 50 -143 70 -170 11 -16 34 -34 51 -41 29 -12 31 -16 25
-49 -3 -20 -6 -41 -6 -47 0 -7 -17 -12 -39 -12 -39 -1 -191 -58 -191 -72 0
-11 68 -69 119 -102 31 -19 58 -28 86 -28 39 0 43 -2 54 -38 7 -20 14 -42 17
-48 3 -7 -9 -17 -27 -23 -36 -12 -163 -141 -151 -153 10 -10 158 -48 187 -48
12 0 44 11 70 25 l48 26 26 -23 c14 -13 28 -24 30 -26 3 -1 -5 -12 -17 -25
-11 -12 -25 -42 -31 -67 -11 -48 -15 -170 -5 -170 16 0 162 74 181 92 12 11
28 37 34 56 11 33 13 34 48 28 20 -3 46 -6 59 -6 19 0 22 -5 22 -39 0 -41 52
-131 103 -180 l26 -23 24 48 c41 82 57 148 46 189 -6 20 -9 38 -7 39 11 6 79
36 83 36 3 0 11 -13 19 -29 14 -26 14 -30 -4 -46 -30 -27 -24 -38 10 -20 26
14 33 14 52 1 24 -15 150 -56 173 -56 13 0 4 87 -15 144 -9 25 -6 31 18 49 15
11 63 57 108 101 99 99 144 182 151 280 13 153 -92 325 -294 488 -60 47 -63
51 -61 91 1 23 1 66 0 94 -2 50 -3 52 -25 44 -12 -5 -47 -23 -77 -41 -52 -31
-55 -31 -81 -16 -38 23 -46 20 -20 -8 22 -23 22 -24 4 -60 -9 -20 -22 -35 -29
-32 -7 3 -30 10 -52 17 -37 11 -40 14 -45 55 -4 42 -82 194 -98 194 -5 0 -22
-20 -39 -45z"/>
</g>
</svg>
