<?xml version="1.0" standalone="no"?>
<!DOCTYPE svg PUBLIC "-//W3C//DTD SVG 20010904//EN"
 "http://www.w3.org/TR/2001/REC-SVG-20010904/DTD/svg10.dtd">
<svg version="1.0" xmlns="http://www.w3.org/2000/svg"
 width="114.000000pt" height="193.000000pt" viewBox="0 0 114.000000 193.000000"
 preserveAspectRatio="xMidYMid meet">
<metadata>
Created by potrace 1.15, written by Peter Selinger 2001-2017
</metadata>
<g transform="translate(0.000000,193.000000) scale(0.100000,-0.100000)"
fill="#000000" stroke="none">
<path d="M108 1903 c-31 -33 -68 -107 -93 -182 -43 -131 21 -335 205 -657 78
-138 301 -472 418 -629 l90 -120 -24 -26 c-23 -24 -23 -27 -9 -39 13 -11 25
-11 58 -2 38 10 46 8 85 -14 40 -24 42 -27 36 -60 -6 -32 -5 -34 23 -34 27 0
30 -4 42 -52 7 -29 15 -61 18 -71 4 -16 13 -13 81 24 42 23 81 45 86 49 16 16
-82 201 -138 260 -31 32 -56 69 -61 88 -3 18 -12 32 -18 32 -7 0 -57 89 -113
198 -608 1191 -641 1256 -651 1259 -5 2 -21 -9 -35 -24z"/>
</g>
</svg>
