<?xml version="1.0" standalone="no"?>
<!DOCTYPE svg PUBLIC "-//W3C//DTD SVG 20010904//EN"
 "http://www.w3.org/TR/2001/REC-SVG-20010904/DTD/svg10.dtd">
<svg version="1.0" xmlns="http://www.w3.org/2000/svg"
 width="114.000000pt" height="246.000000pt" viewBox="0 0 114.000000 246.000000"
 preserveAspectRatio="xMidYMid meet">
<metadata>
Created by potrace 1.15, written by Peter Selinger 2001-2017
</metadata>
<g transform="translate(0.000000,246.000000) scale(0.100000,-0.100000)"
fill="#000000" stroke="none">
<path d="M451 2434 c-12 -15 -21 -37 -21 -50 l0 -23 -36 24 c-20 14 -44 25
-54 25 -24 0 -50 -32 -50 -63 0 -22 -5 -27 -24 -27 -37 0 -59 -28 -53 -65 5
-30 4 -31 -24 -27 -41 6 -72 -23 -66 -61 3 -24 -1 -30 -30 -42 -43 -18 -49
-62 -12 -100 18 -19 18 -19 -14 -30 -35 -11 -47 -47 -28 -83 9 -16 6 -23 -14
-36 -32 -21 -34 -69 -4 -90 l21 -14 -21 -21 c-26 -26 -27 -55 -1 -81 19 -19
19 -23 6 -48 -18 -36 -2 -75 33 -80 23 -4 23 -4 3 -25 -34 -38 -35 -57 -4 -85
24 -23 28 -33 24 -66 -5 -43 13 -66 53 -66 19 0 22 -5 21 -42 -1 -40 1 -44 32
-53 28 -8 32 -14 32 -42 0 -39 32 -65 69 -56 14 3 30 10 35 14 18 16 26 9 26
-20 0 -54 41 -73 101 -47 14 6 16 -7 18 -101 1 -59 -5 -189 -13 -288 -8 -99
-13 -199 -10 -222 3 -26 -2 -62 -11 -90 -19 -56 -21 -159 -4 -211 56 -171 206
-178 264 -11 20 55 19 179 -1 227 -10 25 -13 53 -9 85 3 27 1 107 -5 177 -6
71 -11 194 -11 273 -1 127 1 149 18 171 16 21 24 24 59 19 35 -5 44 -2 58 18
9 13 16 32 16 42 0 15 5 18 24 13 36 -9 54 2 66 40 9 25 17 34 34 34 47 0 71
39 52 85 -12 28 -11 31 17 42 26 12 29 17 25 52 -3 35 0 41 20 46 32 8 49 48
33 82 -10 22 -10 28 3 35 18 10 22 68 5 85 -8 8 -5 17 10 32 29 29 27 67 -4
87 -22 15 -24 19 -12 33 26 30 27 50 3 78 -22 25 -22 29 -9 50 24 37 10 70
-37 84 l-40 12 21 23 c31 33 23 75 -18 93 -25 11 -33 21 -33 41 0 32 -28 60
-59 60 -20 0 -22 4 -18 34 7 52 -16 80 -62 73 -33 -4 -39 -1 -54 24 -20 37
-59 38 -92 4 l-25 -24 0 29 c0 33 -30 70 -58 70 -10 0 -28 -7 -40 -16 -20 -14
-24 -14 -44 0 -32 23 -54 20 -77 -10z m98 -2189 c23 -7 79 19 88 41 11 30 23
12 23 -35 0 -90 -35 -141 -95 -141 -60 0 -95 51 -95 142 l0 50 30 -25 c16 -14
39 -28 49 -32z"/>
</g>
</svg>
