<?xml version="1.0" standalone="no"?>
<!DOCTYPE svg PUBLIC "-//W3C//DTD SVG 20010904//EN"
 "http://www.w3.org/TR/2001/REC-SVG-20010904/DTD/svg10.dtd">
<svg version="1.0" xmlns="http://www.w3.org/2000/svg"
 width="247.000000pt" height="137.000000pt" viewBox="0 0 247.000000 137.000000"
 preserveAspectRatio="xMidYMid meet">
<metadata>
Created by potrace 1.15, written by Peter Selinger 2001-2017
</metadata>
<g transform="translate(0.000000,137.000000) scale(0.100000,-0.100000)"
fill="#000000" stroke="none">
<path d="M2120 1358 c-52 -8 -190 -64 -190 -77 0 -3 21 -19 46 -34 26 -16 43
-33 40 -40 -28 -68 -29 -85 -6 -132 40 -83 133 -97 242 -38 104 57 126 140 64
237 -50 79 -99 100 -196 84z"/>
<path d="M1576 1329 c-79 -13 -147 -55 -267 -166 -139 -129 -184 -165 -229
-188 -58 -30 -197 -56 -270 -50 -100 7 96 -21 358 -50 310 -36 386 -36 489 -1
241 81 334 233 221 362 -62 70 -192 111 -302 93z m149 -133 c40 -17 75 -68 75
-109 0 -96 -201 -158 -505 -156 -121 1 -135 3 -100 13 29 8 67 36 135 101 112
107 148 133 203 151 57 17 150 17 192 0z"/>
<path d="M355 1011 c-33 -10 -79 -27 -103 -40 -49 -25 -47 -34 13 -67 25 -13
33 -23 29 -34 -25 -58 -27 -87 -8 -125 29 -59 62 -78 130 -76 70 2 144 39 187
93 38 48 40 98 4 160 -62 105 -123 127 -252 89z"/>
<path d="M2037 916 c-58 -24 -79 -39 -267 -192 -58 -47 -121 -93 -140 -103
-57 -29 -139 -45 -238 -45 -51 0 -90 -2 -85 -3 82 -23 671 -113 739 -113 153
0 349 94 400 191 36 71 1 170 -80 226 -97 66 -225 82 -329 39z m231 -120 c38
-20 62 -62 62 -109 0 -90 -150 -137 -425 -136 -60 1 -135 4 -165 8 l-55 6 45
12 c33 9 69 33 130 88 115 101 151 126 213 141 64 16 153 12 195 -10z"/>
<path d="M869 835 c-63 -16 -85 -27 -209 -107 -136 -87 -225 -138 -260 -148
-37 -11 -210 -15 -255 -6 -52 10 141 -52 357 -115 246 -71 334 -89 408 -82
152 13 297 80 335 153 35 68 5 174 -65 230 -93 73 -208 101 -311 75z m176
-134 c53 -24 76 -51 82 -99 7 -51 -8 -77 -58 -102 -76 -39 -292 -36 -509 7
-82 16 -84 17 -47 25 50 10 89 31 167 88 113 83 153 98 255 99 48 0 83 -5 110
-18z"/>
<path d="M1480 456 c-52 -15 -78 -28 -218 -108 -194 -112 -216 -120 -339 -119
-59 1 -123 6 -141 12 -18 6 -35 9 -38 7 -4 -5 288 -112 521 -191 141 -48 156
-51 250 -51 155 0 291 49 347 125 49 66 28 168 -48 239 -90 83 -225 118 -334
86z m191 -133 c106 -42 117 -167 19 -207 -80 -32 -301 -16 -509 36 l-86 22 47
7 c47 7 96 31 213 103 33 20 80 43 105 51 53 17 152 12 211 -12z"/>
<path d="M358 415 c-89 -30 -158 -122 -158 -210 0 -39 5 -50 40 -84 108 -105
206 -94 339 38 l66 65 -30 7 c-16 5 -42 11 -57 14 -25 5 -28 10 -28 46 0 96
-82 155 -172 124z"/>
<path d="M1993 392 c-29 -2 -53 -6 -53 -10 0 -4 13 -23 30 -42 16 -19 29 -39
30 -44 0 -4 -14 -24 -31 -44 -28 -32 -31 -40 -27 -89 8 -94 85 -140 206 -123
118 16 167 66 157 158 -7 70 -32 128 -64 151 -50 35 -137 50 -248 43z"/>
</g>
</svg>
