<?xml version="1.0" standalone="no"?>
<!DOCTYPE svg PUBLIC "-//W3C//DTD SVG 20010904//EN"
 "http://www.w3.org/TR/2001/REC-SVG-20010904/DTD/svg10.dtd">
<svg version="1.0" xmlns="http://www.w3.org/2000/svg"
 width="171.000000pt" height="229.000000pt" viewBox="0 0 171.000000 229.000000"
 preserveAspectRatio="xMidYMid meet">
<metadata>
Created by potrace 1.15, written by Peter Selinger 2001-2017
</metadata>
<g transform="translate(0.000000,229.000000) scale(0.100000,-0.100000)"
fill="#000000" stroke="none">
<path d="M10 1760 l0 -530 21 0 c12 0 27 7 33 15 10 13 698 425 711 425 3 0 5
-360 5 -800 0 -873 -1 -852 56 -866 33 -8 61 17 74 67 7 25 10 312 10 815 -1
427 0 777 2 779 3 3 263 -155 602 -366 87 -54 165 -99 172 -99 12 0 14 92 14
540 0 593 3 564 -58 522 -62 -44 -655 -348 -704 -363 -27 -7 -28 -6 -28 32 0
78 -40 136 -85 125 -33 -8 -55 -54 -55 -115 0 -46 -1 -49 -22 -43 -13 3 -59
28 -103 55 -138 85 -605 337 -625 337 -20 0 -20 -10 -20 -530z"/>
</g>
</svg>
